<svg width="23" height="34" viewBox="0 0 23 34" fill="none" xmlns="http://www.w3.org/2000/svg">
<path d="M22.7156 12.0238C21.4577 10.5593 19.9415 9.3474 18.2213 8.44282C17.0382 5.775 14.4076 3.91414 11.355 3.91414C8.30235 3.91414 5.68046 5.775 4.50018 8.44282C2.78001 9.3474 1.26374 10.5621 0.00592134 12.0238C-0.1951 5.42178 4.96827 0 11.3579 0C17.7532 0 22.908 5.42178 22.7156 12.0238Z" fill="url(#paint0_linear_11_6)"/>
<path d="M17.015 17.1728C15.6394 15.5733 13.612 14.5481 11.3577 14.5481C10.545 14.5481 9.75527 14.6859 9.02011 14.9358V10.8809C9.78399 10.7172 10.5622 10.6311 11.3577 10.6311C14.3242 10.6311 17.0236 11.8027 19.0453 13.7124C19.1573 13.8273 19.2751 13.9393 19.3871 14.0484C19.6369 14.2868 19.8666 14.551 20.0791 14.8238C20.1825 14.9559 20.283 15.088 20.3864 15.2287C20.4783 15.3407 20.5616 15.4613 20.6449 15.5819C20.6879 15.6422 20.7195 15.6939 20.754 15.7456C20.7626 15.7542 20.7712 15.7714 20.7798 15.78C20.8373 15.8748 20.9062 15.9782 20.9636 16.0816C21.0555 16.2194 21.1302 16.3573 21.2077 16.4951C21.2163 16.5037 21.225 16.5123 21.225 16.5209C21.3082 16.676 21.3915 16.8311 21.4691 16.9775C21.4518 17.012 21.4346 17.0551 21.403 17.1068C21.3944 17.1326 21.3772 17.1498 21.3599 17.1843C21.3341 17.2188 21.3082 17.2705 21.2853 17.3221C21.2106 17.46 21.1101 17.6237 21.001 17.8218C20.9751 17.8649 20.9895 17.9396 20.9895 17.9396C20.9895 17.9396 20.9177 17.9683 20.9091 17.9769C20.6162 18.5024 20.2141 19.1916 19.7431 19.9986C17.4831 23.861 13.6637 30.331 12.0613 32.8925C11.731 33.4181 10.9844 33.4181 10.6541 32.8925C9.0517 30.3339 5.23804 23.8696 2.98373 20.0043C2.51564 19.1945 2.11073 18.4967 1.80919 17.974C1.80058 17.9654 1.79196 17.9482 1.79196 17.9396C1.76612 17.8965 1.74027 17.862 1.7173 17.819C1.69145 17.7673 1.66561 17.7242 1.63402 17.6811C1.55935 17.5433 1.49043 17.4227 1.433 17.3193C1.40715 17.2676 1.38131 17.2159 1.35833 17.1814C1.3411 17.147 1.33249 17.1297 1.31526 17.1039C1.28941 17.0522 1.26357 17.0091 1.24921 16.9747C1.33249 16.8196 1.40715 16.6645 1.4933 16.5181C1.57658 16.3716 1.66848 16.2165 1.76037 16.0701C1.76899 16.0529 1.7776 16.027 1.79484 16.0098C1.8695 15.8892 1.95278 15.7599 2.03893 15.6393C2.13083 15.5015 2.23134 15.3636 2.33185 15.2258C2.33185 15.2172 2.34046 15.2086 2.34046 15.2086C2.43236 15.0966 2.51564 14.9846 2.59892 14.8812C2.61615 14.8467 2.642 14.8209 2.66497 14.795C2.76548 14.6658 2.87461 14.5452 2.98373 14.4246C3.09286 14.2954 3.2106 14.1661 3.32834 14.0455L3.69018 13.6837L11.3606 26.5949C11.6248 26.2962 15.1627 20.3145 17.015 17.1728Z" fill="url(#paint1_linear_11_6)"/>
<defs>
<linearGradient id="paint0_linear_11_6" x1="0.000177883" y1="6.01218" x2="22.7214" y2="6.01218" gradientUnits="userSpaceOnUse">
<stop stop-color="#659E89"/>
<stop offset="0.3212" stop-color="#619B8A"/>
<stop offset="1" stop-color="#A1C181"/>
</linearGradient>
<linearGradient id="paint1_linear_11_6" x1="4.45348" y1="26.7246" x2="18.2598" y2="12.9182" gradientUnits="userSpaceOnUse">
<stop stop-color="#FE7F2D"/>
<stop offset="1" stop-color="#FCCA46"/>
</linearGradient>
</defs>
</svg>
